<svg width="1280" height="1280" viewBox="0 0 1280 1280" fill="none" xmlns="http://www.w3.org/2000/svg">
<rect width="1280" height="1280" fill="trasparent"/>
<g clip-path="url(#clip0_1314_5310)">
<path d="M474.112 361.8L495.252 343.01C499.652 338.89 503.112 342.37 499.142 347.67C495.162 352.97 474.502 383.29 474.502 383.29L474.112 361.8Z" fill="#0B57D0" stroke="#0B57D0" stroke-width="4.11454" stroke-miterlimit="10" stroke-linecap="round" stroke-linejoin="round"/>
<path d="M782.492 560.59L814.042 535.6C818.672 531.51 821.672 534.88 819.492 539.19C817.312 543.5 795.062 569.38 795.062 569.38L782.492 560.59Z" fill="transparent" stroke="#0B57D0" stroke-width="4.11454" stroke-miterlimit="10" stroke-linecap="round" stroke-linejoin="round"/>
<path d="M834.023 579.28L880.063 546.77C883.743 544.32 881.423 540.37 876.933 542.55C872.443 544.73 835.383 565.3 835.383 565.3L834.023 579.28Z" fill="transparent" stroke="#0B57D0" stroke-width="4.11454" stroke-miterlimit="10" stroke-linecap="round" stroke-linejoin="round"/>
<path d="M834.018 579.28L872.518 540.41C875.788 536.96 872.478 532.6 865.748 538.41C859.028 544.22 828.198 569.83 828.198 569.83L834.018 579.28Z" fill="transparent" stroke="#0B57D0" stroke-width="4.11454" stroke-miterlimit="10" stroke-linecap="round" stroke-linejoin="round"/>
<path d="M321.719 1004.5C240.889 1004.5 175.949 955.47 187.879 902.46C199.809 849.45 250.159 816.33 332.319 801.75C414.479 787.17 640.419 767.3 640.419 767.3C640.419 767.3 876.959 528.28 963.089 527.38C1079.26 526.18 1021.4 735.49 904.779 914.39H759.019L672.269 940.51L663.459 1004.5H321.719Z" fill="transparent" stroke="#0B57D0" stroke-width="4.11454" stroke-miterlimit="10" stroke-linecap="round" stroke-linejoin="round"/>
<path d="M540.947 776.67C540.947 776.67 497.957 729.31 501.487 684.25L429.877 718.61L456.437 580C456.437 580 563.757 589.71 587.507 555.48C601.987 534.61 601.597 513.42 602.127 513.42C602.657 513.42 639.757 513.42 639.757 513.42C639.757 513.42 639.317 562.38 690.547 572.59C755.697 585.58 778.007 605.61 790.377 672.75L798.767 717.81H691.137L640.417 767.28L540.947 776.67Z" fill="transparent" stroke="#0B57D0" stroke-width="4.11454" stroke-miterlimit="10" stroke-linecap="round" stroke-linejoin="round"/>
<path d="M741.04 731.319C772.923 731.319 798.77 725.651 798.77 718.66C798.77 711.668 772.923 706 741.04 706C709.157 706 683.31 711.668 683.31 718.66C683.31 725.651 709.157 731.319 741.04 731.319Z" fill="#0B57D0" stroke="#0B57D0" stroke-width="4.11454" stroke-miterlimit="10" stroke-linecap="round" stroke-linejoin="round"/>
<path d="M683.308 718.66L671.998 659.81" stroke="#0B57D0" stroke-width="4.11454" stroke-miterlimit="10" stroke-linecap="round" stroke-linejoin="round"/>
<path d="M581.617 444.45C581.617 444.45 562.527 430.75 562.527 444.45C562.527 458.15 577.907 475.51 577.907 475.51L581.617 444.45Z" fill="transparent" stroke="#0B57D0" stroke-width="4.11454" stroke-miterlimit="10" stroke-linecap="round" stroke-linejoin="round"/>
<path d="M659.511 444.45C659.511 444.45 678.601 430.75 678.601 444.45C678.601 458.15 663.221 475.51 663.221 475.51L659.511 444.45Z" fill="transparent" stroke="#0B57D0" stroke-width="4.11454" stroke-miterlimit="10" stroke-linecap="round" stroke-linejoin="round"/>
<path d="M168.001 1004.5H1112.83" stroke="#0B57D0" stroke-width="4.11454" stroke-miterlimit="10" stroke-linecap="round" stroke-linejoin="round"/>
<path d="M324.219 855.05L689.959 898.64" stroke="#0B57D0" stroke-width="4.11454" stroke-miterlimit="10" stroke-linecap="round" stroke-linejoin="round"/>
<path d="M689.961 898.64C676.411 898.64 672.881 933.09 663.461 1004.5H707.041C707.041 1004.5 709.381 898.64 689.961 898.64Z" fill="#0B57D0" stroke="#0B57D0" stroke-width="4.11454" stroke-miterlimit="10" stroke-linecap="round" stroke-linejoin="round"/>
<path d="M761.073 914.39C761.073 914.39 746.353 957.83 741.053 1004.5H958.373C961.903 971.08 829.983 969.31 838.813 914.39H761.073Z" fill="transparent" stroke="#0B57D0" stroke-width="4.11454" stroke-miterlimit="10" stroke-linecap="round" stroke-linejoin="round"/>
<path d="M759.018 914.39L888.438 666.59" stroke="#0B57D0" stroke-width="4.11454" stroke-miterlimit="10" stroke-linecap="round" stroke-linejoin="round"/>
<path d="M663.461 1004.5H733.551C779.491 1004.5 843.101 1045.87 873.131 1039.4L746.501 898.64C746.501 898.64 702.251 922.81 673.431 933.69C673.431 933.69 667.101 976.78 663.461 1004.5Z" fill="transparent" stroke="#0B57D0" stroke-width="4.11454" stroke-miterlimit="10" stroke-linecap="round" stroke-linejoin="round"/>
<path d="M501.5 684.26C505.48 658.64 519.609 626.84 519.609 626.84L501.5 684.26Z" fill="transparent"/>
<path d="M501.5 684.26C505.48 658.64 519.609 626.84 519.609 626.84" stroke="#0B57D0" stroke-width="4.11454" stroke-miterlimit="10" stroke-linecap="round" stroke-linejoin="round"/>
<path d="M429.881 718.62C412.851 725.78 418.451 673.07 442.011 580.01H464.971C464.971 580.01 462.921 706.34 429.881 718.62Z" fill="#0B57D0" stroke="#0B57D0" stroke-width="4.11454" stroke-miterlimit="10" stroke-linecap="round" stroke-linejoin="round"/>
<path d="M543.752 576.81C543.752 576.81 569.522 618.88 621.202 618.88C665.112 618.88 694.872 573.5 694.872 573.5" stroke="#0B57D0" stroke-width="4.11454" stroke-miterlimit="10" stroke-linecap="round" stroke-linejoin="round"/>
<path d="M669.849 445.88C669.849 405.33 636.599 397.12 620.559 396.98V396.97C620.489 396.97 620.419 396.97 620.349 396.97C620.279 396.97 620.199 396.97 620.139 396.97V396.98C604.099 397.12 570.849 405.33 570.849 445.88C570.849 486.58 591.689 519.34 620.139 519.67V519.69C620.209 519.69 620.279 519.68 620.349 519.68C620.419 519.68 620.489 519.69 620.559 519.69V519.67C649.009 519.34 669.849 486.58 669.849 445.88Z" fill="transparent" stroke="#0B57D0" stroke-width="4.11454" stroke-miterlimit="10" stroke-linecap="round" stroke-linejoin="round"/>
<path d="M623.852 306.47H474.112V456.22V605.96H623.852L771.632 604L773.592 456.22V306.47H623.852Z" stroke="#0B57D0" stroke-width="4.11454" stroke-miterlimit="10" stroke-linecap="round" stroke-linejoin="round"/>
<path d="M449.723 690.56C449.723 690.56 378.703 690 388.413 635.22C398.123 580.44 462.623 430.71 462.623 430.71C462.623 430.71 454.233 383 474.103 361.8V375.49L531.083 367.98C539.033 366.88 537.713 373.06 531.083 375.05C524.453 377.04 486.023 387.2 486.023 387.2L536.553 387.42C543.003 387.86 541.363 394.71 536.553 394.71L489.993 395.81L534.603 404.2C539.463 405.53 537.033 411.27 532.173 410.6C527.313 409.94 492.193 406.85 492.193 406.85L528.003 418.34C532.423 420.11 531.983 424.3 526.903 423.64C521.823 422.98 489.803 416.79 489.803 416.79C489.803 416.79 485.813 520.93 474.123 579.94C474.113 579.95 461.313 668.49 449.723 690.56Z" fill="transparent" stroke="#0B57D0" stroke-width="4.11454" stroke-miterlimit="10" stroke-linecap="round" stroke-linejoin="round"/>
<path d="M685.249 306.47C668.729 242.07 576.799 243.14 559.999 306.47H623.849H685.249Z" stroke="#0B57D0" stroke-width="4.11454" stroke-miterlimit="10" stroke-linecap="round" stroke-linejoin="round"/>
<path d="M687.807 327.66C687.807 319.94 686.897 312.89 685.247 306.48H623.847H559.997C558.297 312.91 557.347 319.96 557.347 327.66C557.347 414.63 687.807 414.26 687.807 327.66Z" fill="#0B57D0" stroke="#0B57D0" stroke-width="4.11454" stroke-miterlimit="10" stroke-linecap="round" stroke-linejoin="round"/>
<path d="M668.672 462.39C676.012 420.62 652.132 397.22 621.062 396.98V396.97C620.992 396.97 620.922 396.98 620.852 396.98C620.782 396.98 620.712 396.97 620.642 396.97V396.98C580.802 396.98 567.662 424.38 572.532 462.39C572.532 462.39 617.382 450.91 620.852 427.21C620.852 456.04 668.672 462.39 668.672 462.39Z" fill="#0B57D0" stroke="#0B57D0" stroke-width="4.11454" stroke-miterlimit="10" stroke-linecap="round" stroke-linejoin="round"/>
<path d="M773.589 265.06V240" stroke="#0B57D0" stroke-width="4.11454" stroke-miterlimit="10" stroke-linecap="round" stroke-linejoin="round"/>
<path d="M814.409 306.47H839.469" stroke="#0B57D0" stroke-width="4.11454" stroke-miterlimit="10" stroke-linecap="round" stroke-linejoin="round"/>
<path d="M808.536 271.89L826.266 254.17" stroke="#0B57D0" stroke-width="4.11454" stroke-miterlimit="10" stroke-linecap="round" stroke-linejoin="round"/>
<path d="M795.883 605.96L794.793 770.17C794.793 807.77 773.593 820.12 747.933 812.49C710.523 800.5 704.763 708.82 704.763 708.82C712.833 707.08 735.613 706.01 735.613 706.01C745.203 666.6 772.043 573.51 772.043 573.51C775.903 563.67 784.443 556.4 798.773 556.4C813.863 556.4 821.123 565.89 828.573 565.89L854.003 538.23C859.813 531.33 864.533 534.06 861.183 539.65C857.923 545.09 834.023 579.28 834.023 579.28H796.973L795.883 605.96Z" fill="transparent" stroke="#0B57D0" stroke-width="4.11454" stroke-miterlimit="10" stroke-linecap="round" stroke-linejoin="round"/>
<path d="M735.61 706C735.61 706 728.04 730.089 724.5 746.459L735.61 706Z" fill="transparent"/>
<path d="M735.61 706C735.61 706 728.04 730.089 724.5 746.459" stroke="#0B57D0" stroke-width="4.11454" stroke-miterlimit="10" stroke-linecap="round" stroke-linejoin="round"/>
</g>
<defs>
<clipPath id="clip0_1314_5310">
<rect width="948.83" height="804.08" fill="transparent" transform="translate(166 238)"/>
</clipPath>
</defs>
</svg>
